<svg width="338" height="338" viewBox="0 0 338 338" xmlns="http://www.w3.org/2000/svg">
    <defs>
        <filter x="-1.7%" y="-1.7%" width="103.4%" height="103.4%" filterUnits="objectBoundingBox" id="bg6v8jd7fa">
            <feOffset dy="2" in="SourceAlpha" result="shadowOffsetOuter1"/>
            <feGaussianBlur stdDeviation="2" in="shadowOffsetOuter1" result="shadowBlurOuter1"/>
            <feColorMatrix values="0 0 0 0 0 0 0 0 0 0 0 0 0 0 0 0 0 0 0.104212194 0" in="shadowBlurOuter1" result="shadowMatrixOuter1"/>
            <feMerge>
                <feMergeNode in="shadowMatrixOuter1"/>
                <feMergeNode in="SourceGraphic"/>
            </feMerge>
        </filter>
    </defs>
    <g filter="url(#bg6v8jd7fa)" transform="translate(-181 -223)" fill="none" fill-rule="evenodd">
        <path d="M247.801 301.749c0 8.037 5.82 14.552 13.001 14.552 7.18 0 13-6.515 13-14.552 0-8.037-5.82-14.552-13-14.552-1.103 0-6.104-.266-7.125.023-5.637 1.594-5.876 7.725-5.876 14.529" fill="#939BA5"/>
        <path d="M241.415 301.749c0 8.037 5.82 14.552 13.001 14.552 7.18 0 13-6.515 13-14.552 0-8.037-5.82-14.552-13-14.552-7.182 0-13.001 6.515-13.001 14.552" fill="#A6AFBC"/>
        <path d="M243.222 301.24c0 6.074 4.732 10.998 10.564 10.998 5.835 0 10.566-4.924 10.566-10.998 0-6.074-4.731-10.998-10.566-10.998-5.832 0-10.564 4.924-10.564 10.998" fill="#BFC1C4"/>
        <path d="M253.176 291.63c4.132 0 7.56 3.138 8.208 7.25a8.097 8.097 0 0 0-5.316-2c-4.595 0-8.32 3.878-8.32 8.661 0 .482.038.953.112 1.413-1.835-1.589-3.004-3.983-3.004-6.662 0-4.783 3.725-8.661 8.32-8.661" fill="#ADAEAF"/>
        <path d="M252.703 310.001c5.832 0 10.564-4.924 10.564-10.998a11.41 11.41 0 0 0-.714-3.974 11.265 11.265 0 0 1 1.8 6.14c0 6.074-4.732 10.998-10.567 10.998-4.488 0-8.318-2.914-9.85-7.023 1.898 2.93 5.115 4.857 8.767 4.857" fill="#71777E"/>
        <path d="M247.595 300.307h.01c.544-.006.93-.52 1.205-.99.45-.773.846-1.58 1.385-2.293.65-.862 1.461-1.444 2.521-1.67.663-.14 1.919-.266 1.728-1.232-.132-.658-.991-1.107-1.596-1.158a2.83 2.83 0 0 0-.236-.01c-1.72 0-3.606 1.509-4.666 2.684-.83.918-1.54 2.072-1.451 3.305.046.642.457 1.364 1.1 1.364" fill="#EBEBEB"/>
        <path d="M435.732 301.663c0 8.037 5.82 14.552 13 14.552s13-6.515 13-14.552c0-8.037-5.82-14.552-13-14.552-1.102 0-6.103-.265-7.124.024-5.636 1.593-5.876 7.725-5.876 14.528" fill="#939BA5"/>
        <path d="M429.346 301.663c0 8.037 5.82 14.552 13 14.552s13-6.515 13-14.552c0-8.037-5.82-14.552-13-14.552s-13 6.515-13 14.552" fill="#A6AFBC"/>
        <path fill="#BFC1C4" d="M464.56 337.396H385.95l4.686 46.656h82.109l-8.187-46.656"/>
        <path fill="#D8D8D8" d="m464.56 337.396 3.641 1.205 8.028 45.451h-3.483l-8.187-46.656"/>
        <path fill="#BFC1C4" d="M478.33 420.737H399.72l4.686 46.656h82.109l-8.186-46.656"/>
        <path fill="#A6AFBC" d="M476.23 497h-17.55l-22.712-167.335h18.123L476.229 497"/>
        <path fill="#A6AFBC" d="M451.666 312.153 423.245 497h-21.413l32.244-184.847h17.59"/>
        <path fill="#939BA5" d="M451.666 312.153h4.937L430.086 497h-8.552l30.132-184.847"/>
        <path fill="#939BA5" d="M456.603 312.153 482.768 497h-6.539l-23.522-176.371 3.896-8.476"/>
        <path fill="#A6AFBC" d="M288.154 497h-17.55l-22.711-167.335h18.121L288.154 497"/>
        <path fill="#A6AFBC" d="M263.59 312.153 235.169 497h-21.413l32.243-184.847h17.591"/>
        <path fill="#939BA5" d="M263.59 312.153h4.937L242.01 497h-8.552l30.132-184.847"/>
        <path fill="#939BA5" d="M268.527 312.153 294.692 497h-6.538l-23.522-176.371 3.895-8.476"/>
        <path fill="#D8D8D8" d="M223.563 384.052h226.285l8.299-45.266-2.048-3.332-224.237 3.332-10.348 41.935 2.049 3.331"/>
        <path fill="#EBEBEB" d="M221.514 380.72H447.8l8.299-45.266H229.814l-8.3 45.267"/>
        <path fill="#EA3624" d="M416.265 380.72h31.441l-24.13-45.266h-31.44l24.13 45.267M362.082 380.72h31.441l-24.13-45.266h-31.44l24.129 45.267M307.899 380.94h31.441l-24.13-45.266h-31.44l24.129 45.265M253.715 380.94h31.442l-24.129-45.266h-31.443l24.13 45.265"/>
        <path fill="#D8D8D8" d="M212.048 467.393h226.284l8.299-45.268-2.048-3.331-224.238 3.331L210 464.059l2.048 3.334"/>
        <path fill="#EBEBEB" d="M210 464.06h226.284l8.299-45.266H218.297L210 464.059"/>
        <path fill="#EA3624" d="M404.749 464.06h31.441l-24.13-45.266h-31.44l24.129 45.265M350.566 464.06h31.441l-24.13-45.266h-31.44l24.129 45.265M296.383 464.28h31.44l-24.129-45.265h-31.44l24.129 45.265M242.2 464.28h31.44l-24.129-45.265h-31.44l24.13 45.265"/>
        <path fill="#D8D8D8" d="m478.33 420.737 3.642 1.203L490 467.393h-3.484l-8.186-46.656"/>
        <path d="M431.153 301.154c0 6.075 4.73 10.999 10.565 10.999 5.835 0 10.565-4.924 10.565-10.999 0-6.073-4.73-10.997-10.565-10.997-5.835 0-10.565 4.924-10.565 10.997" fill="#BFC1C4"/>
        <path d="M441.106 291.545c4.133 0 7.56 3.138 8.208 7.249a8.092 8.092 0 0 0-5.316-2c-4.595 0-8.32 3.878-8.32 8.662 0 .481.04.952.112 1.412-1.835-1.588-3.004-3.983-3.004-6.662 0-4.783 3.725-8.66 8.32-8.66" fill="#ADAEAF"/>
        <path d="M440.633 309.916c5.835 0 10.565-4.924 10.565-10.998 0-1.402-.255-2.742-.715-3.975a11.265 11.265 0 0 1 1.8 6.14c0 6.075-4.73 10.999-10.565 10.999-4.488 0-8.32-2.915-9.85-7.024 1.897 2.93 5.115 4.858 8.765 4.858" fill="#71777E"/>
        <path d="M435.526 300.222h.01c.546-.006.931-.52 1.205-.99.45-.773.845-1.581 1.384-2.294.652-.862 1.461-1.443 2.523-1.67.662-.14 1.918-.266 1.727-1.232-.13-.657-.99-1.107-1.597-1.157a2.771 2.771 0 0 0-.234-.01c-1.721 0-3.606 1.508-4.668 2.683-.83.919-1.538 2.072-1.45 3.306.047.642.458 1.364 1.1 1.364" fill="#EBEBEB"/>
        <path fill="#7E858C" d="M434.333 467.393h-27.336l-.47 2.692 19.261.817 7.328 4.977 1.217-8.486M446.289 384.052h-24.755l-.479 2.745 18.303.86 5.74 4.699 1.19-8.304M258.233 384.052H233.48l-.478 2.745 18.302.86 5.74 4.699 1.19-8.304M246.259 467.393h-27.337l-.472 2.71 19.255.85 7.339 4.901 1.215-8.461"/>
    </g>
</svg>
